<?xml version="1.0" encoding="UTF-8" standalone="no"?>
<!DOCTYPE svg PUBLIC "-//W3C//DTD SVG 1.1//EN" "http://www.w3.org/Graphics/SVG/1.1/DTD/svg11.dtd">
<svg width="100%" height="100%" viewBox="0 0 621 734" version="1.1" xmlns="http://www.w3.org/2000/svg" xmlns:xlink="http://www.w3.org/1999/xlink" xml:space="preserve" xmlns:serif="http://www.serif.com/" style="fill-rule:evenodd;clip-rule:evenodd;stroke-miterlimit:1;">
    <path id="_x30_47_Merced" d="M193.416,361.086L195.457,364.529L179.356,380.555L179.454,380.939L179.545,381.294L180.026,381.579L179.643,381.677L179.733,382.031L179.349,382.13L179.093,382.604L179.191,382.989L178.807,383.087L178.897,383.441L178.543,383.531L178.159,383.629L178.257,384.014L178.347,384.368L178.731,384.27L178.829,384.653L179.183,384.563L179.281,384.947L179.371,385.302L179.755,385.203L179.853,385.587L180.207,385.496L180.305,385.881L180.395,386.235L180.041,386.326L180.139,386.71L179.755,386.808L179.4,386.9L179.204,387.736L179.294,388.09L178.91,388.188L178.556,388.279L178.172,388.377L178.27,388.762L177.789,388.475L177.985,389.244L178.368,389.146L178.459,389.5L178.655,390.268L178.746,390.623L178.844,391.006L178.461,391.104L178.106,391.195L177.813,391.647L177.911,392.032L178.009,392.416L178.099,392.77L178.58,393.057L178.67,393.411L179.025,393.321L179.123,393.705L179.506,393.607L179.604,393.991L179.694,394.346L178.594,396.199L178.79,396.968L179.235,397.231L179.333,397.616L179.814,397.902L181.291,397.526L181.765,399.386L182.24,399.643L182.526,400.765L183.452,401.315L184.024,403.561L197.458,411.241L224.593,384.097L228.697,383.051L228.599,382.667L231.197,382.005L231.295,382.389L233.154,381.915L233.056,381.53L233.44,381.432L233.35,381.078L235.21,380.603L235.112,380.22L240.662,378.805L241.973,379.257L244.217,378.685L244.315,379.07L245.792,378.693L245.882,379.047L247.388,378.663L247.298,378.309L250.251,377.557L250.153,377.172L249.799,377.263L249.521,376.169L249.137,376.268L249.039,375.883L248.941,375.499L248.497,375.235L248.399,374.85L247.924,374.594L247.443,374.308L247.088,374.398L246.99,374.014L246.607,374.112L246.162,373.847L245.681,373.562L245.297,373.66L245.206,373.306L244.852,373.396L244.754,373.012L244.37,373.11L243.918,372.817L243.828,372.463L243.346,372.176L243.248,371.792L242.865,371.89L242.775,371.536L242.677,371.151L242.322,371.242L242.232,370.888L242.134,370.504L242.043,370.15L241.945,369.765L242.3,369.675L242.585,369.194L242.014,368.552L241.916,368.169L241.471,367.904L240.99,367.618L240.9,367.264L240.802,366.88L240.704,366.495L240.614,366.141L240.516,365.758L240.426,365.403L240.071,365.494L239.973,365.109L239.875,364.726L239.785,364.372L239.304,364.085L239.214,363.731L239.116,363.346L239.018,362.962L238.634,363.06L238.544,362.706L238.446,362.321L238.355,361.967L238.001,362.057L237.903,361.673L237.715,360.935L237.233,360.649L237.143,360.295L237.045,359.91L236.947,359.526L236.857,359.172L236.503,359.263L236.405,358.878L236.21,358.111L236.564,358.02L236.858,357.568L236.768,357.214L236.67,356.83L236.475,356.063L236.384,355.708L236.294,355.354L235.812,355.068L235.722,354.713L235.617,354.3L235.263,354.39L235.527,353.947L235.083,353.682L234.985,353.298L234.601,353.396L234.511,353.042L234.406,352.628L234.316,352.273L234.226,351.919L234.128,351.535L234.037,351.18L233.932,350.766L233.842,350.412L233.751,350.057L233.179,349.417L232.983,348.649L232.795,347.911L232.441,348.001L232.351,347.647L232.246,347.233L232.066,346.523L231.968,346.14L231.486,345.853L231.012,343.992L230.658,344.082L230.56,343.699L230.47,343.344L230.38,342.99L230.282,342.606L193.416,361.086Z" style="fill:rgb(204,204,204);fill-rule:nonzero;stroke:white;stroke-width:1px;"/>
    <g id="g360">
        <path id="path362" d="M202.021,377.613C201.971,376.724 201.92,375.734 201.951,374.974L201.911,374.974C201.762,375.724 201.581,376.524 201.371,377.314L200.542,380.472L200.053,380.472L199.263,377.443C199.043,376.584 198.843,375.755 198.713,374.974L198.683,374.974C198.683,375.764 198.643,376.703 198.604,377.663L198.473,380.511L197.784,380.511L198.184,373.775L199.013,373.775L199.803,376.853C200.032,377.744 200.202,378.403 200.342,379.172L200.372,379.172C200.502,378.402 200.652,377.763 200.872,376.853L201.632,373.775L202.491,373.775L202.881,380.511L202.161,380.511L202.021,377.613Z" style="fill-rule:nonzero;"/>
        <path id="path364" d="M206.393,377.314L204.704,377.314L204.704,379.842L206.623,379.842L206.623,380.511L203.935,380.511L203.935,373.775L206.503,373.775L206.503,374.445L204.704,374.445L204.704,376.664L206.393,376.664L206.393,377.314Z" style="fill-rule:nonzero;"/>
        <path id="path366" d="M207.474,373.876C207.804,373.786 208.203,373.746 208.583,373.746C209.253,373.746 209.753,373.886 210.103,374.225C210.432,374.565 210.573,375.015 210.573,375.544C210.573,376.403 210.173,376.964 209.493,377.273L209.493,377.294C209.993,377.443 210.253,377.924 210.403,378.803C210.552,379.733 210.693,380.303 210.783,380.512L210.003,380.512C209.903,380.313 209.774,379.673 209.644,378.844C209.494,377.924 209.205,377.574 208.544,377.574L208.244,377.574L208.244,380.512L207.474,380.512L207.474,373.876ZM208.243,376.984L208.563,376.984C209.302,376.984 209.792,376.444 209.792,375.634C209.792,374.855 209.473,374.374 208.643,374.364C208.494,374.364 208.343,374.374 208.244,374.405L208.244,376.984L208.243,376.984Z" style="fill-rule:nonzero;"/>
        <path id="path368" d="M214.502,380.392C214.292,380.501 213.962,380.572 213.542,380.572C212.224,380.572 211.284,379.512 211.284,377.224C211.284,374.565 212.602,373.715 213.662,373.715C214.072,373.715 214.362,373.795 214.502,373.885L214.332,374.534C214.172,374.464 214.002,374.394 213.652,374.394C212.932,374.394 212.092,375.094 212.092,377.153C212.092,379.212 212.852,379.891 213.672,379.891C213.961,379.891 214.221,379.821 214.381,379.741L214.502,380.392Z" style="fill-rule:nonzero;"/>
        <path id="path370" d="M217.752,377.314L216.063,377.314L216.063,379.842L217.982,379.842L217.982,380.511L215.294,380.511L215.294,373.775L217.862,373.775L217.862,374.445L216.063,374.445L216.063,376.664L217.752,376.664L217.752,377.314Z" style="fill-rule:nonzero;"/>
        <path id="path372" d="M218.833,373.876C219.133,373.786 219.482,373.746 219.872,373.746C220.582,373.746 221.082,373.926 221.451,374.256C221.972,374.705 222.361,375.574 222.361,376.985C222.361,378.524 221.981,379.364 221.551,379.823C221.112,380.323 220.471,380.553 219.692,380.553C219.382,380.553 219.062,380.532 218.833,380.483L218.833,373.876ZM219.603,379.882C219.713,379.902 219.823,379.902 219.893,379.902C220.743,379.902 221.562,379.293 221.562,377.004C221.562,375.305 221.042,374.375 219.963,374.375C219.843,374.375 219.702,374.386 219.603,374.416L219.603,379.882Z" style="fill-rule:nonzero;"/>
    </g>
</svg>
