<?xml version="1.0" encoding="UTF-8" standalone="no"?><!DOCTYPE svg PUBLIC "-//W3C//DTD SVG 1.1//EN" "http://www.w3.org/Graphics/SVG/1.1/DTD/svg11.dtd"><svg width="100%" height="100%" viewBox="0 0 74 71" version="1.1" xmlns="http://www.w3.org/2000/svg" xmlns:xlink="http://www.w3.org/1999/xlink" xml:space="preserve" xmlns:serif="http://www.serif.com/" style="fill-rule:evenodd;clip-rule:evenodd;stroke-miterlimit:1;"><g><path id="_x30_47_Merced" d="M16.334,19.187l2.041,3.443l-16.101,16.026l0.098,0.384l0.091,0.355l0.481,0.285l-0.383,0.098l0.09,0.354l-0.384,0.099l-0.256,0.474l0.098,0.385l-0.384,0.098l0.09,0.354l-0.354,0.09l-0.384,0.098l0.098,0.385l0.09,0.354l0.384,-0.098l0.098,0.383l0.354,-0.09l0.098,0.384l0.09,0.355l0.384,-0.099l0.098,0.384l0.354,-0.091l0.098,0.385l0.09,0.354l-0.354,0.091l0.098,0.384l-0.384,0.098l-0.355,0.092l-0.196,0.836l0.09,0.354l-0.384,0.098l-0.354,0.091l-0.384,0.098l0.098,0.385l-0.481,-0.287l0.196,0.769l0.383,-0.098l0.091,0.354l0.196,0.768l0.091,0.355l0.098,0.383l-0.383,0.098l-0.355,0.091l-0.293,0.452l0.098,0.385l0.098,0.384l0.09,0.354l0.481,0.287l0.09,0.354l0.355,-0.09l0.098,0.384l0.383,-0.098l0.098,0.384l0.09,0.355l-1.1,1.853l0.196,0.769l0.445,0.263l0.098,0.385l0.481,0.286l1.477,-0.376l0.474,1.86l0.475,0.257l0.286,1.122l0.926,0.55l0.572,2.246l13.434,7.68l27.135,-27.144l4.104,-1.046l-0.098,-0.384l2.598,-0.662l0.098,0.384l1.859,-0.474l-0.098,-0.385l0.384,-0.098l-0.09,-0.354l1.86,-0.475l-0.098,-0.383l5.55,-1.415l1.311,0.452l2.244,-0.572l0.098,0.385l1.477,-0.377l0.09,0.354l1.506,-0.384l-0.09,-0.354l2.953,-0.752l-0.098,-0.385l-0.354,0.091l-0.278,-1.094l-0.384,0.099l-0.098,-0.385l-0.098,-0.384l-0.444,-0.264l-0.098,-0.385l-0.475,-0.256l-0.481,-0.286l-0.355,0.09l-0.098,-0.384l-0.383,0.098l-0.445,-0.265l-0.481,-0.285l-0.384,0.098l-0.091,-0.354l-0.354,0.09l-0.098,-0.384l-0.384,0.098l-0.452,-0.293l-0.09,-0.354l-0.482,-0.287l-0.098,-0.384l-0.383,0.098l-0.09,-0.354l-0.098,-0.385l-0.355,0.091l-0.09,-0.354l-0.098,-0.384l-0.091,-0.354l-0.098,-0.385l0.355,-0.09l0.285,-0.481l-0.571,-0.642l-0.098,-0.383l-0.445,-0.265l-0.481,-0.286l-0.09,-0.354l-0.098,-0.384l-0.098,-0.385l-0.09,-0.354l-0.098,-0.383l-0.09,-0.355l-0.355,0.091l-0.098,-0.385l-0.098,-0.383l-0.09,-0.354l-0.481,-0.287l-0.09,-0.354l-0.098,-0.385l-0.098,-0.384l-0.384,0.098l-0.09,-0.354l-0.098,-0.385l-0.091,-0.354l-0.354,0.09l-0.098,-0.384l-0.188,-0.738l-0.482,-0.286l-0.09,-0.354l-0.098,-0.385l-0.098,-0.384l-0.09,-0.354l-0.354,0.091l-0.098,-0.385l-0.195,-0.767l0.354,-0.091l0.294,-0.452l-0.09,-0.354l-0.098,-0.384l-0.195,-0.767l-0.091,-0.355l-0.09,-0.354l-0.482,-0.286l-0.09,-0.355l-0.105,-0.413l-0.354,0.09l0.264,-0.443l-0.444,-0.265l-0.098,-0.384l-0.384,0.098l-0.09,-0.354l-0.105,-0.414l-0.09,-0.355l-0.09,-0.354l-0.098,-0.384l-0.091,-0.355l-0.105,-0.414l-0.09,-0.354l-0.091,-0.355l-0.572,-0.64l-0.196,-0.768l-0.188,-0.738l-0.354,0.09l-0.09,-0.354l-0.105,-0.414l-0.18,-0.71l-0.098,-0.383l-0.482,-0.287l-0.474,-1.861l-0.354,0.09l-0.098,-0.383l-0.09,-0.355l-0.09,-0.354l-0.098,-0.384l-36.866,18.48Z" style="fill:#ccc;fill-rule:nonzero;stroke:#fff;stroke-width:1px;"/><g id="g360"><path id="path362" d="M24.939,35.714c-0.05,-0.889 -0.101,-1.879 -0.07,-2.639l-0.04,0c-0.149,0.75 -0.33,1.55 -0.54,2.34l-0.829,3.158l-0.489,0l-0.79,-3.029c-0.22,-0.859 -0.42,-1.688 -0.55,-2.469l-0.03,0c0,0.79 -0.04,1.729 -0.079,2.689l-0.131,2.848l-0.689,0l0.4,-6.736l0.829,0l0.79,3.078c0.229,0.891 0.399,1.55 0.539,2.319l0.03,0c0.13,-0.77 0.28,-1.409 0.5,-2.319l0.76,-3.078l0.859,0l0.39,6.736l-0.72,0l-0.14,-2.898Z" style="fill-rule:nonzero;"/><path id="path364" d="M29.311,35.415l-1.689,0l0,2.528l1.919,0l0,0.669l-2.688,0l0,-6.736l2.568,0l0,0.67l-1.799,0l0,2.219l1.689,0l0,0.65Z" style="fill-rule:nonzero;"/><path id="path366" d="M30.392,31.977c0.33,-0.09 0.729,-0.13 1.109,-0.13c0.67,0 1.17,0.14 1.52,0.479c0.329,0.34 0.47,0.79 0.47,1.319c0,0.859 -0.4,1.42 -1.08,1.729l0,0.021c0.5,0.149 0.76,0.63 0.91,1.509c0.149,0.93 0.29,1.5 0.38,1.709l-0.78,0c-0.1,-0.199 -0.229,-0.839 -0.359,-1.668c-0.15,-0.92 -0.439,-1.27 -1.1,-1.27l-0.3,0l0,2.938l-0.77,0l0,-6.636Zm0.769,3.108l0.32,0c0.739,0 1.229,-0.54 1.229,-1.35c0,-0.779 -0.319,-1.26 -1.149,-1.27c-0.149,0 -0.3,0.01 -0.399,0.041l0,2.579l-0.001,0Z" style="fill-rule:nonzero;"/><path id="path368" d="M37.42,38.493c-0.21,0.109 -0.54,0.18 -0.96,0.18c-1.318,0 -2.258,-1.06 -2.258,-3.348c0,-2.659 1.318,-3.509 2.378,-3.509c0.41,0 0.7,0.08 0.84,0.17l-0.17,0.649c-0.16,-0.07 -0.33,-0.14 -0.68,-0.14c-0.72,0 -1.56,0.7 -1.56,2.759c0,2.059 0.76,2.738 1.58,2.738c0.289,0 0.549,-0.07 0.709,-0.15l0.121,0.651Z" style="fill-rule:nonzero;"/><path id="path370" d="M40.67,35.415l-1.689,0l0,2.528l1.919,0l0,0.669l-2.688,0l0,-6.736l2.568,0l0,0.67l-1.799,0l0,2.219l1.689,0l0,0.65Z" style="fill-rule:nonzero;"/><path id="path372" d="M41.751,31.977c0.3,-0.09 0.649,-0.13 1.039,-0.13c0.71,0 1.21,0.18 1.579,0.51c0.521,0.449 0.91,1.318 0.91,2.729c0,1.539 -0.38,2.379 -0.81,2.838c-0.439,0.5 -1.08,0.73 -1.859,0.73c-0.31,0 -0.63,-0.021 -0.859,-0.07l0,-6.607Zm0.77,6.006c0.11,0.02 0.22,0.02 0.29,0.02c0.85,0 1.669,-0.609 1.669,-2.898c0,-1.699 -0.52,-2.629 -1.599,-2.629c-0.12,0 -0.261,0.011 -0.36,0.041l0,5.466Z" style="fill-rule:nonzero;"/></g></g></svg>